<svg xmlns="http://www.w3.org/2000/svg" viewBox="0 0 800 600" role="img" aria-label="Cosmetics placeholder">
  <defs>
    <linearGradient id="bg" x1="0" y1="0" x2="1" y2="1">
      <stop offset="0%" stop-color="#fff4f0" />
      <stop offset="100%" stop-color="#f8d8cf" />
    </linearGradient>
    <linearGradient id="accent" x1="0" y1="0" x2="1" y2="1">
      <stop offset="0%" stop-color="#d66b7b" />
      <stop offset="100%" stop-color="#8b3d50" />
    </linearGradient>
  </defs>
  <rect width="800" height="600" rx="36" fill="url(#bg)" />
  <circle cx="155" cy="120" r="70" fill="#ffffff" opacity="0.7" />
  <circle cx="680" cy="95" r="42" fill="#ffffff" opacity="0.5" />
  <rect x="220" y="140" width="360" height="280" rx="36" fill="#ffffff" opacity="0.7" />
  <path d="M340 164h120c10 0 18 8 18 18v14c0 10-8 18-18 18H340c-10 0-18-8-18-18v-14c0-10 8-18 18-18z" fill="url(#accent)" />
  <path d="M356 214h88l48 136c10 28-11 58-41 58h-102c-30 0-51-30-41-58l48-136z" fill="#f4b7c2" />
  <ellipse cx="400" cy="318" rx="84" ry="28" fill="#ffffff" opacity="0.65" />
  <circle cx="400" cy="310" r="58" fill="#fff" opacity="0.9" />
  <path d="M392 250h16v74h-16z" fill="url(#accent)" />
  <path d="M380 262h40v14h-40z" fill="#f3a2b5" opacity="0.95" />
  <text x="400" y="505" text-anchor="middle" font-family="Georgia, serif" font-size="42" fill="#7b3b4d">Cosmetics Store</text>
</svg>
